<svg xmlns="http://www.w3.org/2000/svg" viewBox="0 0 32 32">
  <defs>
    <linearGradient id="grad1" x1="0%" y1="0%" x2="100%" y2="100%">
      <stop offset="0%" style="stop-color:#f4de24;stop-opacity:1" />
      <stop offset="100%" style="stop-color:#e6c61a;stop-opacity:1" />
    </linearGradient>
  </defs>
  
  <!-- Background circle -->
  <circle cx="16" cy="16" r="16" fill="url(#grad1)"/>
  
  <!-- Tooth icon -->
  <path d="M16 6c-3.5 0-6 2.5-6 6v4c0 3.5 2.5 6 6 6s6-2.5 6-6v-4c0-3.5-2.5-6-6-6zm-2 6c0-1.1 0.9-2 2-2s2 0.9 2 2v2c0 1.1-0.9 2-2 2s-2-0.9-2-2v-2z" fill="white"/>
  
  <!-- Small highlights -->
  <circle cx="13" cy="10" r="1.5" fill="white" opacity="0.8"/>
  <circle cx="19" cy="10" r="1.5" fill="white" opacity="0.8"/>
</svg> 